<svg height="512pt" viewBox="0 0 512 512" width="512pt" xmlns="http://www.w3.org/2000/svg"><path d="m256 512c-68.378906 0-132.667969-26.628906-181.019531-74.980469-48.351563-48.351562-74.980469-112.640625-74.980469-181.019531s26.628906-132.667969 74.980469-181.019531c48.351562-48.351563 112.640625-74.980469 181.019531-74.980469s132.667969 26.628906 181.019531 74.980469c48.351563 48.351562 74.980469 112.640625 74.980469 181.019531s-26.628906 132.667969-74.980469 181.019531c-48.351562 48.351563-112.640625 74.980469-181.019531 74.980469zm0-482c-124.617188 0-226 101.382812-226 226s101.382812 226 226 226 226-101.382812 226-226-101.382812-226-226-226zm0 0" fill="#76e2f8"/><path d="m437.019531 74.980469c-48.351562-48.351563-112.640625-74.980469-181.019531-74.980469v30c124.617188 0 226 101.382812 226 226s-101.382812 226-226 226v30c68.378906 0 132.667969-26.628906 181.019531-74.980469 48.351563-48.351562 74.980469-112.640625 74.980469-181.019531s-26.628906-132.667969-74.980469-181.019531zm0 0" fill="#00cef5"/><path d="m85 40c-24.8125 0-45 20.1875-45 45s20.1875 45 45 45 45-20.1875 45-45-20.1875-45-45-45zm0 0" fill="#ffdc55"/><path d="m427.027344 471.027344c-24.8125 0-45-20.1875-45-45s20.1875-45 45-45 45 20.1875 45 45-20.1875 45-45 45zm0 0" fill="#ff0059"/><path d="m256 256h-166c0 91.679688 74.320312 166 166 166zm0 0" fill="#27d8f6"/><path d="m256 90c-91.679688 0-166 74.320312-166 166h166zm0 0" fill="#76e2f8"/><path d="m256 256h166c0-91.679688-74.320312-166-166-166zm0 0" fill="#0fa9dd"/><path d="m256 256v166c91.679688 0 166-74.320312 166-166zm0 0" fill="#0d91bd"/><path d="m256 231.304688-83.6875 24.695312c0 91.679688 37.46875 166 83.6875 166s83.6875-74.320312 83.6875-166zm0 0" fill="#00c0f1"/><path d="m256 90c-46.21875 0-83.6875 74.320312-83.6875 166h167.375c0-91.679688-37.46875-166-83.6875-166zm0 0" fill="#26befc"/><path d="m339.6875 256-83.6875-24.695312v190.695312c46.21875 0 83.6875-74.320312 83.6875-166zm0 0" fill="#0fa9dd"/><path d="m172.3125 256h83.6875v-166c-46.21875 0-83.6875 74.320312-83.6875 166zm0 0" fill="#27d8f6"/><path d="m339.6875 256c0-91.679688-37.46875-166-83.6875-166v166zm0 0" fill="#00c0f1"/></svg>